<svg width="114" height="49" viewBox="0 0 114 49" fill="none" xmlns="http://www.w3.org/2000/svg">
<path d="M5.03409 35.2727L4.94318 28.6364H6.03409L21.3068 13.0909H27.9432L11.6705 29.5455H11.2159L5.03409 35.2727ZM0.034091 48V1.45454H5.39773V48H0.034091ZM22.2159 48L8.57955 30.7273L12.3977 27L29.0341 48H22.2159ZM74.8466 24.7273C74.8466 29.6364 73.9602 33.8788 72.1875 37.4545C70.4148 41.0303 67.983 43.7879 64.892 45.7273C61.8011 47.6667 58.2708 48.6364 54.3011 48.6364C50.3314 48.6364 46.8011 47.6667 43.7102 45.7273C40.6193 43.7879 38.1875 41.0303 36.4148 37.4545C34.642 33.8788 33.7557 29.6364 33.7557 24.7273C33.7557 19.8182 34.642 15.5758 36.4148 12C38.1875 8.42424 40.6193 5.66667 43.7102 3.72727C46.8011 1.78788 50.3314 0.81818 54.3011 0.81818C58.2708 0.81818 61.8011 1.78788 64.892 3.72727C67.983 5.66667 70.4148 8.42424 72.1875 12C73.9602 15.5758 74.8466 19.8182 74.8466 24.7273ZM69.392 24.7273C69.392 20.697 68.7178 17.2955 67.3693 14.5227C66.036 11.75 64.2254 9.65151 61.9375 8.22727C59.6648 6.80303 57.1193 6.09091 54.3011 6.09091C51.483 6.09091 48.9299 6.80303 46.642 8.22727C44.3693 9.65151 42.5587 11.75 41.2102 14.5227C39.8769 17.2955 39.2102 20.697 39.2102 24.7273C39.2102 28.7576 39.8769 32.1591 41.2102 34.9318C42.5587 37.7045 44.3693 39.803 46.642 41.2273C48.9299 42.6515 51.483 43.3636 54.3011 43.3636C57.1193 43.3636 59.6648 42.6515 61.9375 41.2273C64.2254 39.803 66.036 37.7045 67.3693 34.9318C68.7178 32.1591 69.392 28.7576 69.392 24.7273ZM97.7784 48.7273C94.6269 48.7273 91.8617 47.9773 89.483 46.4773C87.1193 44.9773 85.2708 42.8788 83.9375 40.1818C82.6193 37.4848 81.9602 34.3333 81.9602 30.7273C81.9602 27.0909 82.6193 23.9167 83.9375 21.2045C85.2708 18.4924 87.1193 16.3864 89.483 14.8864C91.8617 13.3864 94.6269 12.6364 97.7784 12.6364C100.93 12.6364 103.688 13.3864 106.051 14.8864C108.43 16.3864 110.278 18.4924 111.597 21.2045C112.93 23.9167 113.597 27.0909 113.597 30.7273C113.597 34.3333 112.93 37.4848 111.597 40.1818C110.278 42.8788 108.43 44.9773 106.051 46.4773C103.688 47.9773 100.93 48.7273 97.7784 48.7273ZM97.7784 43.9091C100.172 43.9091 102.142 43.2955 103.688 42.0682C105.233 40.8409 106.377 39.2273 107.119 37.2273C107.862 35.2273 108.233 33.0606 108.233 30.7273C108.233 28.3939 107.862 26.2197 107.119 24.2045C106.377 22.1894 105.233 20.5606 103.688 19.3182C102.142 18.0758 100.172 17.4545 97.7784 17.4545C95.3845 17.4545 93.4148 18.0758 91.8693 19.3182C90.3239 20.5606 89.1799 22.1894 88.4375 24.2045C87.6951 26.2197 87.3239 28.3939 87.3239 30.7273C87.3239 33.0606 87.6951 35.2273 88.4375 37.2273C89.1799 39.2273 90.3239 40.8409 91.8693 42.0682C93.4148 43.2955 95.3845 43.9091 97.7784 43.9091Z" fill="white"/>
</svg>
