<svg width="111" height="17" viewBox="0 0 111 17" fill="none" xmlns="http://www.w3.org/2000/svg">
<path d="M0.167969 0.736328H3.26367V8.63672L11.3203 0.736328H15.2852L7.76562 8.02148L15.2852 16H11.1641L5.53906 10.1797L3.26367 12.377V16H0.167969V0.736328ZM15.7539 10.2383C15.7539 9.41146 15.9199 8.63672 16.252 7.91406C16.5905 7.19141 17.069 6.5599 17.6875 6.01953C18.3125 5.47917 19.0645 5.05273 19.9434 4.74023C20.8288 4.42773 21.8216 4.27148 22.9219 4.27148C24.0221 4.27148 25.0117 4.42773 25.8906 4.74023C26.776 5.05273 27.528 5.47917 28.1465 6.01953C28.7715 6.5599 29.25 7.19141 29.582 7.91406C29.9206 8.63672 30.0898 9.41146 30.0898 10.2383C30.0898 11.0651 29.9206 11.8398 29.582 12.5625C29.25 13.2852 28.7715 13.9167 28.1465 14.457C27.528 14.9974 26.776 15.4238 25.8906 15.7363C25.0117 16.0488 24.0221 16.2051 22.9219 16.2051C21.8216 16.2051 20.8288 16.0488 19.9434 15.7363C19.0645 15.4238 18.3125 14.9974 17.6875 14.457C17.069 13.9167 16.5905 13.2852 16.252 12.5625C15.9199 11.8398 15.7539 11.0651 15.7539 10.2383ZM18.791 10.2383C18.791 10.7005 18.8822 11.14 19.0645 11.5566C19.2533 11.9668 19.5234 12.3314 19.875 12.6504C20.2331 12.9629 20.666 13.2135 21.1738 13.4023C21.6882 13.5846 22.2708 13.6758 22.9219 13.6758C23.5729 13.6758 24.1523 13.5846 24.6602 13.4023C25.1745 13.2135 25.6074 12.9629 25.959 12.6504C26.3171 12.3314 26.5872 11.9668 26.7695 11.5566C26.9583 11.14 27.0527 10.7005 27.0527 10.2383C27.0527 9.77604 26.9583 9.33659 26.7695 8.91992C26.5872 8.50326 26.3171 8.13867 25.959 7.82617C25.6074 7.50716 25.1745 7.25651 24.6602 7.07422C24.1523 6.88542 23.5729 6.79102 22.9219 6.79102C22.2708 6.79102 21.6882 6.88542 21.1738 7.07422C20.666 7.25651 20.2331 7.50716 19.875 7.82617C19.5234 8.13867 19.2533 8.50326 19.0645 8.91992C18.8822 9.33659 18.791 9.77604 18.791 10.2383ZM32.3164 10.2383C32.3164 9.41146 32.4824 8.63672 32.8145 7.91406C33.153 7.19141 33.6315 6.5599 34.25 6.01953C34.875 5.47917 35.627 5.05273 36.5059 4.74023C37.3913 4.42773 38.3841 4.27148 39.4844 4.27148C40.5846 4.27148 41.5742 4.42773 42.4531 4.74023C43.3385 5.05273 44.0905 5.47917 44.709 6.01953C45.334 6.5599 45.8125 7.19141 46.1445 7.91406C46.4831 8.63672 46.6523 9.41146 46.6523 10.2383C46.6523 11.0651 46.4831 11.8398 46.1445 12.5625C45.8125 13.2852 45.334 13.9167 44.709 14.457C44.0905 14.9974 43.3385 15.4238 42.4531 15.7363C41.5742 16.0488 40.5846 16.2051 39.4844 16.2051C38.3841 16.2051 37.3913 16.0488 36.5059 15.7363C35.627 15.4238 34.875 14.9974 34.25 14.457C33.6315 13.9167 33.153 13.2852 32.8145 12.5625C32.4824 11.8398 32.3164 11.0651 32.3164 10.2383ZM35.3535 10.2383C35.3535 10.7005 35.4447 11.14 35.627 11.5566C35.8158 11.9668 36.0859 12.3314 36.4375 12.6504C36.7956 12.9629 37.2285 13.2135 37.7363 13.4023C38.2507 13.5846 38.8333 13.6758 39.4844 13.6758C40.1354 13.6758 40.7148 13.5846 41.2227 13.4023C41.737 13.2135 42.1699 12.9629 42.5215 12.6504C42.8796 12.3314 43.1497 11.9668 43.332 11.5566C43.5208 11.14 43.6152 10.7005 43.6152 10.2383C43.6152 9.77604 43.5208 9.33659 43.332 8.91992C43.1497 8.50326 42.8796 8.13867 42.5215 7.82617C42.1699 7.50716 41.737 7.25651 41.2227 7.07422C40.7148 6.88542 40.1354 6.79102 39.4844 6.79102C38.8333 6.79102 38.2507 6.88542 37.7363 7.07422C37.2285 7.25651 36.7956 7.50716 36.4375 7.82617C36.0859 8.13867 35.8158 8.50326 35.627 8.91992C35.4447 9.33659 35.3535 9.77604 35.3535 10.2383ZM55.5293 8.22656C55.5293 7.15234 55.7311 6.14974 56.1348 5.21875C56.5384 4.28125 57.1276 3.46745 57.9023 2.77734C58.6771 2.08724 59.6276 1.54362 60.7539 1.14648C61.8867 0.749349 63.1823 0.550781 64.6406 0.550781C65.168 0.550781 65.6953 0.580078 66.2227 0.638672C66.7565 0.690755 67.2806 0.775391 67.7949 0.892578C68.3158 1.00977 68.8203 1.15951 69.3086 1.3418C69.8034 1.51758 70.2721 1.72917 70.7148 1.97656L69.2891 4.32031C69.0221 4.16406 68.7194 4.02409 68.3809 3.90039C68.0423 3.77018 67.6777 3.66276 67.2871 3.57812C66.903 3.48698 66.5026 3.41862 66.0859 3.37305C65.6758 3.32747 65.2624 3.30469 64.8457 3.30469C63.8822 3.30469 63.0228 3.42839 62.2676 3.67578C61.5124 3.91667 60.8743 4.25846 60.3535 4.70117C59.8327 5.13737 59.4355 5.66146 59.1621 6.27344C58.8887 6.88542 58.752 7.55599 58.752 8.28516C58.752 9.04036 58.8952 9.73372 59.1816 10.3652C59.4681 10.9967 59.875 11.5404 60.4023 11.9961C60.9297 12.4518 61.5677 12.8099 62.3164 13.0703C63.0651 13.3242 63.9017 13.4512 64.8262 13.4512C65.5618 13.4512 66.2357 13.3698 66.8477 13.207C67.4596 13.0378 67.9935 12.8001 68.4492 12.4941C68.9049 12.1882 69.276 11.8203 69.5625 11.3906C69.849 10.9544 70.0378 10.4661 70.1289 9.92578H64.7969V7.37695H72.9121V7.38672L72.9219 7.37695C73.0846 8.1582 73.1335 8.91992 73.0684 9.66211C73.0098 10.3978 72.8405 11.0944 72.5605 11.752C72.2871 12.403 71.9095 13.002 71.4277 13.5488C70.946 14.0957 70.3698 14.5677 69.6992 14.9648C69.0286 15.3555 68.2669 15.6615 67.4141 15.8828C66.5612 16.0977 65.627 16.2051 64.6113 16.2051C63.1921 16.2051 61.9193 15.9967 60.793 15.5801C59.6732 15.1634 58.7227 14.5938 57.9414 13.8711C57.1602 13.1484 56.5612 12.3021 56.1445 11.332C55.7344 10.362 55.5293 9.32682 55.5293 8.22656ZM81.252 12.2207L74.582 0.736328H78.0879L82.7852 9.41797L87.4238 0.736328H90.9297L84.3477 12.2012V16H81.252V12.2207ZM93.2832 0.736328H96.3789L101.926 6.30273L107.473 0.736328H110.568V16H107.473V5.02344L101.926 10.3652L96.3789 5.02344V16H93.2832V0.736328Z" fill="white"/>
</svg>
