<svg width="148" height="89" viewBox="0 0 148 89" fill="none" xmlns="http://www.w3.org/2000/svg">
<mask id="path-1-outside-1_82_6" maskUnits="userSpaceOnUse" x="17" y="19" width="116" height="51" fill="black">
<rect fill="white" x="17" y="19" width="116" height="51"/>
<path d="M23.0341 55.2727L22.9432 48.6364H24.0341L39.3068 33.0909H45.9432L29.6705 49.5455H29.2159L23.0341 55.2727ZM18.0341 68V21.4545H23.3977V68H18.0341ZM40.2159 68L26.5795 50.7273L30.3977 47L47.0341 68H40.2159ZM92.8466 44.7273C92.8466 49.6364 91.9602 53.8788 90.1875 57.4545C88.4148 61.0303 85.983 63.7879 82.892 65.7273C79.8011 67.6667 76.2708 68.6364 72.3011 68.6364C68.3314 68.6364 64.8011 67.6667 61.7102 65.7273C58.6193 63.7879 56.1875 61.0303 54.4148 57.4545C52.642 53.8788 51.7557 49.6364 51.7557 44.7273C51.7557 39.8182 52.642 35.5758 54.4148 32C56.1875 28.4242 58.6193 25.6667 61.7102 23.7273C64.8011 21.7879 68.3314 20.8182 72.3011 20.8182C76.2708 20.8182 79.8011 21.7879 82.892 23.7273C85.983 25.6667 88.4148 28.4242 90.1875 32C91.9602 35.5758 92.8466 39.8182 92.8466 44.7273ZM87.392 44.7273C87.392 40.697 86.7178 37.2955 85.3693 34.5227C84.036 31.75 82.2254 29.6515 79.9375 28.2273C77.6648 26.803 75.1193 26.0909 72.3011 26.0909C69.483 26.0909 66.9299 26.803 64.642 28.2273C62.3693 29.6515 60.5587 31.75 59.2102 34.5227C57.8769 37.2955 57.2102 40.697 57.2102 44.7273C57.2102 48.7576 57.8769 52.1591 59.2102 54.9318C60.5587 57.7045 62.3693 59.803 64.642 61.2273C66.9299 62.6515 69.483 63.3636 72.3011 63.3636C75.1193 63.3636 77.6648 62.6515 79.9375 61.2273C82.2254 59.803 84.036 57.7045 85.3693 54.9318C86.7178 52.1591 87.392 48.7576 87.392 44.7273ZM115.778 68.7273C112.627 68.7273 109.862 67.9773 107.483 66.4773C105.119 64.9773 103.271 62.8788 101.938 60.1818C100.619 57.4848 99.9602 54.3333 99.9602 50.7273C99.9602 47.0909 100.619 43.9167 101.938 41.2045C103.271 38.4924 105.119 36.3864 107.483 34.8864C109.862 33.3864 112.627 32.6364 115.778 32.6364C118.93 32.6364 121.688 33.3864 124.051 34.8864C126.43 36.3864 128.278 38.4924 129.597 41.2045C130.93 43.9167 131.597 47.0909 131.597 50.7273C131.597 54.3333 130.93 57.4848 129.597 60.1818C128.278 62.8788 126.43 64.9773 124.051 66.4773C121.688 67.9773 118.93 68.7273 115.778 68.7273ZM115.778 63.9091C118.172 63.9091 120.142 63.2955 121.688 62.0682C123.233 60.8409 124.377 59.2273 125.119 57.2273C125.862 55.2273 126.233 53.0606 126.233 50.7273C126.233 48.3939 125.862 46.2197 125.119 44.2045C124.377 42.1894 123.233 40.5606 121.688 39.3182C120.142 38.0758 118.172 37.4545 115.778 37.4545C113.384 37.4545 111.415 38.0758 109.869 39.3182C108.324 40.5606 107.18 42.1894 106.438 44.2045C105.695 46.2197 105.324 48.3939 105.324 50.7273C105.324 53.0606 105.695 55.2273 106.438 57.2273C107.18 59.2273 108.324 60.8409 109.869 62.0682C111.415 63.2955 113.384 63.9091 115.778 63.9091Z"/>
</mask>
<path d="M23.0341 55.2727L22.9432 48.6364H24.0341L39.3068 33.0909H45.9432L29.6705 49.5455H29.2159L23.0341 55.2727ZM18.0341 68V21.4545H23.3977V68H18.0341ZM40.2159 68L26.5795 50.7273L30.3977 47L47.0341 68H40.2159ZM92.8466 44.7273C92.8466 49.6364 91.9602 53.8788 90.1875 57.4545C88.4148 61.0303 85.983 63.7879 82.892 65.7273C79.8011 67.6667 76.2708 68.6364 72.3011 68.6364C68.3314 68.6364 64.8011 67.6667 61.7102 65.7273C58.6193 63.7879 56.1875 61.0303 54.4148 57.4545C52.642 53.8788 51.7557 49.6364 51.7557 44.7273C51.7557 39.8182 52.642 35.5758 54.4148 32C56.1875 28.4242 58.6193 25.6667 61.7102 23.7273C64.8011 21.7879 68.3314 20.8182 72.3011 20.8182C76.2708 20.8182 79.8011 21.7879 82.892 23.7273C85.983 25.6667 88.4148 28.4242 90.1875 32C91.9602 35.5758 92.8466 39.8182 92.8466 44.7273ZM87.392 44.7273C87.392 40.697 86.7178 37.2955 85.3693 34.5227C84.036 31.75 82.2254 29.6515 79.9375 28.2273C77.6648 26.803 75.1193 26.0909 72.3011 26.0909C69.483 26.0909 66.9299 26.803 64.642 28.2273C62.3693 29.6515 60.5587 31.75 59.2102 34.5227C57.8769 37.2955 57.2102 40.697 57.2102 44.7273C57.2102 48.7576 57.8769 52.1591 59.2102 54.9318C60.5587 57.7045 62.3693 59.803 64.642 61.2273C66.9299 62.6515 69.483 63.3636 72.3011 63.3636C75.1193 63.3636 77.6648 62.6515 79.9375 61.2273C82.2254 59.803 84.036 57.7045 85.3693 54.9318C86.7178 52.1591 87.392 48.7576 87.392 44.7273ZM115.778 68.7273C112.627 68.7273 109.862 67.9773 107.483 66.4773C105.119 64.9773 103.271 62.8788 101.938 60.1818C100.619 57.4848 99.9602 54.3333 99.9602 50.7273C99.9602 47.0909 100.619 43.9167 101.938 41.2045C103.271 38.4924 105.119 36.3864 107.483 34.8864C109.862 33.3864 112.627 32.6364 115.778 32.6364C118.93 32.6364 121.688 33.3864 124.051 34.8864C126.43 36.3864 128.278 38.4924 129.597 41.2045C130.93 43.9167 131.597 47.0909 131.597 50.7273C131.597 54.3333 130.93 57.4848 129.597 60.1818C128.278 62.8788 126.43 64.9773 124.051 66.4773C121.688 67.9773 118.93 68.7273 115.778 68.7273ZM115.778 63.9091C118.172 63.9091 120.142 63.2955 121.688 62.0682C123.233 60.8409 124.377 59.2273 125.119 57.2273C125.862 55.2273 126.233 53.0606 126.233 50.7273C126.233 48.3939 125.862 46.2197 125.119 44.2045C124.377 42.1894 123.233 40.5606 121.688 39.3182C120.142 38.0758 118.172 37.4545 115.778 37.4545C113.384 37.4545 111.415 38.0758 109.869 39.3182C108.324 40.5606 107.18 42.1894 106.438 44.2045C105.695 46.2197 105.324 48.3939 105.324 50.7273C105.324 53.0606 105.695 55.2273 106.438 57.2273C107.18 59.2273 108.324 60.8409 109.869 62.0682C111.415 63.2955 113.384 63.9091 115.778 63.9091Z" fill="url(#paint0_linear_82_6)"/>
<path d="M23.0341 55.2727L22.0342 55.2864L22.065 57.5338L23.7137 56.0063L23.0341 55.2727ZM22.9432 48.6364V47.6364H21.9294L21.9433 48.6501L22.9432 48.6364ZM24.0341 48.6364V49.6364H24.4535L24.7474 49.3372L24.0341 48.6364ZM39.3068 33.0909V32.0909H38.8874L38.5935 32.3901L39.3068 33.0909ZM45.9432 33.0909L46.6542 33.7941L48.3386 32.0909H45.9432V33.0909ZM29.6705 49.5455V50.5455H30.0879L30.3815 50.2486L29.6705 49.5455ZM29.2159 49.5455V48.5455H28.8239L28.5363 48.8119L29.2159 49.5455ZM18.0341 68H17.0341V69H18.0341V68ZM18.0341 21.4545V20.4545H17.0341V21.4545H18.0341ZM23.3977 21.4545H24.3977V20.4545H23.3977V21.4545ZM23.3977 68V69H24.3977V68H23.3977ZM40.2159 68L39.431 68.6196L39.7313 69H40.2159V68ZM26.5795 50.7273L25.881 50.0117L25.2369 50.6404L25.7947 51.3469L26.5795 50.7273ZM30.3977 47L31.1816 46.379L30.4928 45.5097L29.6992 46.2844L30.3977 47ZM47.0341 68V69H49.1021L47.8179 67.379L47.0341 68ZM24.034 55.259L23.9431 48.6227L21.9433 48.6501L22.0342 55.2864L24.034 55.259ZM22.9432 49.6364H24.0341V47.6364H22.9432V49.6364ZM24.7474 49.3372L40.0202 33.7917L38.5935 32.3901L23.3208 47.9355L24.7474 49.3372ZM39.3068 34.0909H45.9432V32.0909H39.3068V34.0909ZM45.2322 32.3877L28.9594 48.8423L30.3815 50.2486L46.6542 33.7941L45.2322 32.3877ZM29.6705 48.5455H29.2159V50.5455H29.6705V48.5455ZM28.5363 48.8119L22.3545 54.5392L23.7137 56.0063L29.8955 50.279L28.5363 48.8119ZM19.0341 68V21.4545H17.0341V68H19.0341ZM18.0341 22.4545H23.3977V20.4545H18.0341V22.4545ZM22.3977 21.4545V68H24.3977V21.4545H22.3977ZM23.3977 67H18.0341V69H23.3977V67ZM41.0008 67.3804L27.3644 50.1076L25.7947 51.3469L39.431 68.6196L41.0008 67.3804ZM27.2781 51.4428L31.0963 47.7156L29.6992 46.2844L25.881 50.0117L27.2781 51.4428ZM29.6139 47.621L46.2503 68.621L47.8179 67.379L31.1816 46.379L29.6139 47.621ZM47.0341 67H40.2159V69H47.0341V67ZM90.1875 57.4545L89.2916 57.0104L89.2916 57.0104L90.1875 57.4545ZM82.892 65.7273L83.4235 66.5743L83.4235 66.5743L82.892 65.7273ZM61.7102 65.7273L61.1787 66.5743L61.1787 66.5743L61.7102 65.7273ZM54.4148 57.4545L55.3107 57.0104L55.3107 57.0104L54.4148 57.4545ZM54.4148 32L53.5188 31.5558L54.4148 32ZM82.892 23.7273L83.4235 22.8802L83.4235 22.8802L82.892 23.7273ZM90.1875 32L89.2916 32.4442L89.2916 32.4442L90.1875 32ZM85.3693 34.5227L84.4681 34.9561L84.47 34.9601L85.3693 34.5227ZM79.9375 28.2273L79.4065 29.0746L79.409 29.0762L79.9375 28.2273ZM64.642 28.2273L64.1136 27.3783L64.111 27.3799L64.642 28.2273ZM59.2102 34.5227L58.3109 34.0854L58.309 34.0894L59.2102 34.5227ZM59.2102 54.9318L58.309 55.3652L58.3109 55.3692L59.2102 54.9318ZM64.642 61.2273L64.111 62.0746L64.1136 62.0762L64.642 61.2273ZM79.9375 61.2273L79.409 60.3783L79.4065 60.3799L79.9375 61.2273ZM85.3693 54.9318L84.47 54.4945L84.4681 54.4984L85.3693 54.9318ZM91.8466 44.7273C91.8466 49.5171 90.9819 53.6008 89.2916 57.0104L91.0834 57.8987C92.9386 54.1568 93.8466 49.7557 93.8466 44.7273H91.8466ZM89.2916 57.0104C87.5929 60.4368 85.2806 63.048 82.3606 64.8802L83.4235 66.5743C86.6853 64.5278 89.2367 61.6238 91.0834 57.8987L89.2916 57.0104ZM82.3606 64.8802C79.4428 66.7109 76.1 67.6364 72.3011 67.6364V69.6364C76.4417 69.6364 80.1594 68.6224 83.4235 66.5743L82.3606 64.8802ZM72.3011 67.6364C68.5023 67.6364 65.1594 66.7109 62.2417 64.8802L61.1787 66.5743C64.4428 68.6224 68.1606 69.6364 72.3011 69.6364V67.6364ZM62.2417 64.8802C59.3216 63.048 57.0094 60.4368 55.3107 57.0104L53.5188 57.8987C55.3656 61.6238 57.917 64.5278 61.1787 66.5743L62.2417 64.8802ZM55.3107 57.0104C53.6204 53.6008 52.7557 49.5171 52.7557 44.7273H50.7557C50.7557 49.7557 51.6637 54.1568 53.5188 57.8987L55.3107 57.0104ZM52.7557 44.7273C52.7557 39.9375 53.6204 35.8538 55.3107 32.4442L53.5188 31.5558C51.6637 35.2978 50.7557 39.6989 50.7557 44.7273H52.7557ZM55.3107 32.4442C57.0094 29.0177 59.3216 26.4065 62.2417 24.5743L61.1787 22.8802C57.917 24.9268 55.3656 27.8308 53.5188 31.5558L55.3107 32.4442ZM62.2417 24.5743C65.1594 22.7436 68.5023 21.8182 72.3011 21.8182V19.8182C68.1606 19.8182 64.4428 20.8321 61.1787 22.8802L62.2417 24.5743ZM72.3011 21.8182C76.1 21.8182 79.4428 22.7436 82.3606 24.5743L83.4235 22.8802C80.1594 20.8321 76.4417 19.8182 72.3011 19.8182V21.8182ZM82.3606 24.5743C85.2806 26.4065 87.5929 29.0177 89.2916 32.4442L91.0834 31.5558C89.2367 27.8308 86.6853 24.9268 83.4235 22.8802L82.3606 24.5743ZM89.2916 32.4442C90.9819 35.8538 91.8466 39.9375 91.8466 44.7273H93.8466C93.8466 39.6989 92.9386 35.2978 91.0834 31.5558L89.2916 32.4442ZM88.392 44.7273C88.392 40.5902 87.7005 37.0296 86.2686 34.0854L84.47 34.9601C85.7351 37.5613 86.392 40.8038 86.392 44.7273H88.392ZM86.2705 34.0894C84.8669 31.1704 82.9369 28.9165 80.466 27.3783L79.409 29.0762C81.5138 30.3865 83.2051 32.3296 84.4681 34.9561L86.2705 34.0894ZM80.4685 27.3799C78.0284 25.8508 75.2972 25.0909 72.3011 25.0909V27.0909C74.9415 27.0909 77.3012 27.7553 79.4065 29.0746L80.4685 27.3799ZM72.3011 25.0909C69.3051 25.0909 66.5675 25.8507 64.1136 27.3783L65.1705 29.0762C67.2924 27.7553 69.6608 27.0909 72.3011 27.0909V25.0909ZM64.111 27.3799C61.6569 28.9178 59.7288 31.1699 58.3109 34.0854L60.1095 34.9601C61.3886 32.3301 63.0817 30.3852 65.1731 29.0746L64.111 27.3799ZM58.309 34.0894C56.8938 37.0325 56.2102 40.5915 56.2102 44.7273H58.2102C58.2102 40.8024 58.86 37.5585 60.1114 34.9561L58.309 34.0894ZM56.2102 44.7273C56.2102 48.863 56.8938 52.4221 58.309 55.3652L60.1114 54.4984C58.86 51.8961 58.2102 48.6521 58.2102 44.7273H56.2102ZM58.3109 55.3692C59.7288 58.2846 61.6569 60.5367 64.111 62.0746L65.1731 60.3799C63.0817 59.0693 61.3886 57.1245 60.1095 54.4945L58.3109 55.3692ZM64.1136 62.0762C66.5675 63.6038 69.3051 64.3636 72.3011 64.3636V62.3636C69.6608 62.3636 67.2924 61.6992 65.1705 60.3783L64.1136 62.0762ZM72.3011 64.3636C75.2972 64.3636 78.0284 63.6038 80.4685 62.0746L79.4065 60.3799C77.3012 61.6992 74.9415 62.3636 72.3011 62.3636V64.3636ZM80.466 62.0762C82.9369 60.538 84.8669 58.2842 86.2705 55.3652L84.4681 54.4984C83.2051 57.1249 81.5138 59.0681 79.409 60.3783L80.466 62.0762ZM86.2686 55.3692C87.7005 52.425 88.392 48.8644 88.392 44.7273H86.392C86.392 48.6508 85.7351 51.8932 84.47 54.4945L86.2686 55.3692ZM107.483 66.4773L106.947 67.3216L106.95 67.3231L107.483 66.4773ZM101.938 60.1818L101.039 60.6209L101.041 60.625L101.938 60.1818ZM101.938 41.2045L101.04 40.7634L101.038 40.7674L101.938 41.2045ZM107.483 34.8864L106.95 34.0405L106.947 34.042L107.483 34.8864ZM124.051 34.8864L123.515 35.7307L123.518 35.7322L124.051 34.8864ZM129.597 41.2045L128.697 41.6417L128.699 41.6457L129.597 41.2045ZM129.597 60.1818L128.7 59.7386L128.698 59.7427L129.597 60.1818ZM124.051 66.4773L123.518 65.6314L123.515 65.6329L124.051 66.4773ZM121.688 62.0682L121.066 61.2851L121.066 61.2851L121.688 62.0682ZM125.119 57.2273L126.057 57.5753L126.057 57.5753L125.119 57.2273ZM125.119 44.2045L126.058 43.8588L126.058 43.8588L125.119 44.2045ZM121.688 39.3182L122.314 38.5388L122.314 38.5388L121.688 39.3182ZM109.869 39.3182L109.243 38.5388L109.243 38.5388L109.869 39.3182ZM106.438 44.2045L105.499 43.8588L105.499 43.8588L106.438 44.2045ZM106.438 57.2273L105.5 57.5753L105.5 57.5753L106.438 57.2273ZM109.869 62.0682L110.491 61.2851L110.491 61.2851L109.869 62.0682ZM115.778 67.7273C112.792 67.7273 110.217 67.0189 108.016 65.6314L106.95 67.3231C109.507 68.9357 112.462 69.7273 115.778 69.7273V67.7273ZM108.019 65.6329C105.821 64.2385 104.092 62.2841 102.834 59.7386L101.041 60.625C102.449 63.4734 104.417 65.7161 106.947 67.3216L108.019 65.6329ZM102.836 59.7427C101.597 57.2073 100.96 54.2114 100.96 50.7273H98.9602C98.9602 54.4553 99.6419 57.7624 101.039 60.6209L102.836 59.7427ZM100.96 50.7273C100.96 47.2116 101.597 44.1924 102.837 41.6417L101.038 40.7674C99.6415 43.6409 98.9602 46.9702 98.9602 50.7273H100.96ZM102.835 41.6457C104.094 39.0851 105.823 37.1243 108.019 35.7307L106.947 34.042C104.416 35.6484 102.448 37.8998 101.04 40.7634L102.835 41.6457ZM108.016 35.7322C110.217 34.3448 112.792 33.6364 115.778 33.6364V31.6364C112.462 31.6364 109.507 32.428 106.95 34.0405L108.016 35.7322ZM115.778 33.6364C118.765 33.6364 121.331 34.3448 123.515 35.7307L124.587 34.042C122.044 32.4279 119.095 31.6364 115.778 31.6364V33.6364ZM123.518 35.7322C125.727 37.1255 127.454 39.0846 128.697 41.6417L130.496 40.7674C129.102 37.9002 127.133 35.6472 124.585 34.0405L123.518 35.7322ZM128.699 41.6457C129.953 44.1954 130.597 47.2132 130.597 50.7273H132.597C132.597 46.9686 131.907 43.6379 130.494 40.7634L128.699 41.6457ZM130.597 50.7273C130.597 54.2098 129.953 57.2042 128.7 59.7386L130.493 60.625C131.907 57.7655 132.597 54.4569 132.597 50.7273H130.597ZM128.698 59.7427C127.456 62.2845 125.729 64.2372 123.518 65.6314L124.585 67.3231C127.131 65.7173 129.101 63.473 130.495 60.6209L128.698 59.7427ZM123.515 65.6329C121.331 67.0189 118.765 67.7273 115.778 67.7273V69.7273C119.095 69.7273 122.044 68.9357 124.587 67.3216L123.515 65.6329ZM115.778 64.9091C118.349 64.9091 120.552 64.2471 122.309 62.8513L121.066 61.2851C119.732 62.3438 117.996 62.9091 115.778 62.9091V64.9091ZM122.309 62.8513C124.009 61.5013 125.256 59.732 126.057 57.5753L124.182 56.8793C123.498 58.7225 122.457 60.1805 121.066 61.2851L122.309 62.8513ZM126.057 57.5753C126.844 55.4539 127.233 53.1683 127.233 50.7273H125.233C125.233 52.9529 124.879 55.0006 124.182 56.8793L126.057 57.5753ZM127.233 50.7273C127.233 48.2862 126.844 45.9939 126.058 43.8588L124.181 44.5502C124.879 46.4455 125.233 48.5017 125.233 50.7273H127.233ZM126.058 43.8588C125.258 41.6882 124.013 39.9042 122.314 38.5388L121.061 40.0976C122.453 41.217 123.496 42.6906 124.181 44.5502L126.058 43.8588ZM122.314 38.5388C120.556 37.1257 118.351 36.4545 115.778 36.4545V38.4545C117.993 38.4545 119.728 39.0258 121.061 40.0976L122.314 38.5388ZM115.778 36.4545C113.205 36.4545 111.001 37.1257 109.243 38.5388L110.496 40.0976C111.829 39.0258 113.563 38.4545 115.778 38.4545V36.4545ZM109.243 38.5388C107.544 39.9042 106.299 41.6882 105.499 43.8588L107.376 44.5502C108.061 42.6906 109.103 41.217 110.496 40.0976L109.243 38.5388ZM105.499 43.8588C104.713 45.9939 104.324 48.2862 104.324 50.7273H106.324C106.324 48.5017 106.678 46.4455 107.376 44.5502L105.499 43.8588ZM104.324 50.7273C104.324 53.1683 104.713 55.4539 105.5 57.5753L107.375 56.8793C106.678 55.0006 106.324 52.9529 106.324 50.7273H104.324ZM105.5 57.5753C106.301 59.732 107.547 61.5013 109.247 62.8513L110.491 61.2851C109.1 60.1805 108.059 58.7225 107.375 56.8793L105.5 57.5753ZM109.247 62.8513C111.005 64.2471 113.208 64.9091 115.778 64.9091V62.9091C113.561 62.9091 111.824 62.3438 110.491 61.2851L109.247 62.8513Z" fill="black" mask="url(#path-1-outside-1_82_6)"/>
<defs>
<linearGradient id="paint0_linear_82_6" x1="17.5" y1="6.00001" x2="184.5" y2="104" gradientUnits="userSpaceOnUse">
<stop/>
<stop offset="0.9999" stop-color="white" stop-opacity="0.01"/>
<stop offset="1" stop-opacity="0"/>
</linearGradient>
</defs>
</svg>
